/* XPM */
static char *result[] = {
/* columns rows colors chars-per-pixel */
"128 128 67 1 ",
"  c #7D7978",
". c #888380",
"X c #939290",
"o c #908B88",
"O c #898884",
"+ c #989390",
"@ c #999895",
"# c #807B78",
"$ c #8B8A88",
"% c #91908D",
"& c #82817D",
"* c #A8A3A0",
"= c #797875",
"- c #A09B98",
"; c #9A9A98",
": c #838280",
"> c #787370",
", c #706B68",
"< c #807876",
"1 c #686360",
"2 c #504C49",
"3 c #605B58",
"4 c #978F8D",
"5 c #8F8785",
"6 c #B0ABA8",
"7 c #A1A09D",
"8 c #A2A2A0",
"9 c #66615E",
"0 c #A79F9D",
"q c #71706D",
"w c #867E7C",
"e c #CAC6C3",
"r c #AAA9A5",
"t c #777370",
"y c #ECE8E5",
"u c #D0CBC8",
"i c #B8B0AE",
"p c #6A6965",
"a c #D9D5D2",
"s c #C1BDBA",
"d c #ABAAA8",
"f c #86827F",
"g c #B8B3B0",
"h c #8E8A87",
"j c #9E9A97",
"k c #B1B0AC",
"l c #BAB9B5",
"z c #9C9794",
"x c #F4EFEC",
"c c #35302D",
"v c #5A5552",
"b c #AEA9A6",
"n c #746F6C",
"m c #61605C",
"M c #423D3A",
"N c #DAD9D5",
"B c #D2D1CD",
"V c #5F5B58",
"C c #CBCAC6",
"Z c #595854",
"A c #DED9D6",
"S c #C4C1BE",
"D c #676360",
"F c #55514E",
"G c #494441",
"H c #6F6B68",
"J c white",
/* pixels */
" .XoO+o.+o+@@+o.#OooO#Xo+$o%oO.%o+.&#*%o=+oooo+-o.O.++;+o+o+-.Oo:.@oO&O.:#o.>&oo#&.##*&o+.##$,=#o+.-+o<$+o,1**oo+;@oo#oO@+%o.&#O",
">oO++oX+o+@+o%o=+o:o&o++ooOooo.+oOo<.o+o@o%+#+*o%>o***+.23.-+4,O.@o5#.++o:%,#.>.:.#.#.oo.o,#>+ooo++.o%#+.:o67*o$oo+O.+--8->  #%$",
".&oo+o%++ooooO.oo.ooOO%+o.++..oooo.Oo+*@.-o-&+o>+O4@**+9-0oo+o-++++.:-++.:1.q,>#<O...#<&wo&oe@O.+o.#.o#&&#o+-o&o.X.O.%+---%roO%.",
".o+%o+o+++o%%oo+oO.ooOo#Oo#&..o+.5ooOO-#o+O.ooo.+o*6o-X-*r+*--.+@-ooo-oooo>O#,t=###&####royuo#$@-+:.+>>#ooO+@oo&>-7o+o+o8-+oO.-.",
"%+oo+++Xo+o4+o+Xo..&%#Oo..o.o%%+oo+.ooo&oo+.+..o-i+-Xo@o6-+@++@*+-*oX-O>.#1#p,.>=#..#>5.ea,>..o->>%.+O,>+oo-+%=#.+OoO=*+-oooo+o:",
"Xo%+ooo$ooo%4oooXo$..o#....O+5ooo+s+-o-+%+X+O...--+*++**i--+ooO--+*-.++o#=,.>=.o>#....++.>3#..+oXo>o.&&.o%oo+.Oo+$oo..%+-X.+o#X+",
".ooo$.%++oooo.@++o+###O...o.Oo%oo+*6--+o++5%##.o+;4+.o0rd-oXo%--++-+#%>>>,.&>+q&#=O.--#.%,q,-7+-+.,.Oo%o@-+1o>+.-%#o+.-+;+%++O7+",
"oo%+oOo+++.o+oo%%+oO##f.O...o+%-o+4g++oo*++o.Xo+.%4+-+-*6--5+-Oo+-o:.>&>.>.q...qoo-+oo..#=>o;+-oo:>=o.%#Oo+#o#.+o.Oo+.++#+o+@o-@",
"+Oooo.o@O:#X%oo.%oOo&.+.ooh+*+-jooooO.--*4++.#-+oo.+o+06--+o-;o-@-+O#=.&#&o#o..o-7&#>.,>##.---77+#,&oo.&o+$%.%:.OOoX+-.7@.@o#oo+",
"X..XOo.o%o.oo%oo%O#o.#++.o-*+6+.O++-X-o--o.o.o-$Ooq.+*-6-X+-+o++;++=oo.&>Ow#.o+*.o+9,1.#.$+oo++@: ..+O.+o+oo#@-o.o-*--+$*.7+:..;",
"O.oooOo#Oh.=.@>o%oO.+.o.;*d+$+o+++**O#-*oo..+o+oo#q<+**;*+oo+.%4+-+.%o><>=#O+...&o.>pp:+o$$++@--#&o:+.#$.-+$+7o%+-;-+oo%o.++Oooo",
"oO.+ooo$o.O#.%Oj#.ho.+oo*6+#.+o+**->++oo..o.++o4-o+o--*6-++%+#--++o+o&o.#.@+.&.#,o..>#>++#.+@-r+>O..@&#o++o.o*o+7O@Xk7o%o+@+.%+;",
"%oO-%o%O%.O$oo..o.%+oh-**6#oo-*++-#.oo---++@0++--7+o6+-*+.o+-o-o.o+o.-%>++.$..ooOooo+++$..OO---o+o.%+#ooo$@+++O++-+-g-o*.o+%:ooX",
"%+=oooo+ohooo#oX+oo5+-+-.#o.+o+7o..O++*8#;-@-++*--o+---++%-+-+oO.+o-oo..>5ooo.o.oO-.+++X.>>+*6+o.o.#7++7O+#o%*-+oo%6+@++o+@+o+-%",
"7.#O+.@ohoo%.oO%-oo--o-o..+.-;oo.#.>$++-+*%@*@--X#+.+-o.6*r6..#oo+o+.+O>oo>#oO+=-X.o$o@o##o$.-*oo&X@+7-Oo+%-*6;+o>+5#%%@+ooo-7o%",
"oo=>%o%o.=+o&.#h*oj-*+o++;o4+ooX%:...-o#X+o-@*or*+5oo-o-@-+.5&o:.$...+-++o.o++@+O->.%++..-*%;--:+o+-7-ooo+-7r+-@@o+$o+o+++**.oo-",
"@.o.+%%ooo.oO$+-+o%--+o*o-o$+;-.-o+.o+o-gu%o*+o7*-oo<+++o.o#o.&..oooo+--o+Xo-6o;oo+&6o%$o;+o7+*Or--**@-o--66--+o++%o+@@+-7-o>o#.",
"+.+@o+-+%#.oo.#+#>--*o*+o+4o-;++++7@-;o-o.@-r7.4--+o*-.oo+.oo<<.+@.#.-%-+-o+-r-+oO;-@o+oo..+*6d#@+7++Xo@@.--O-o+++o+++-+%@O&Oo#.",
"+%%%+@j6-o++++o#+--j+*++++$++----$+@X&#$O+o--+O.-o-%+++.#,o.$#.o,o.o%*-*oo.+d%+#++++=%#%o@+-+*g+$>--*7@+---@;++%+@+%--oo>.o.#.%o",
"+o%@oo;l*-+o+o##ooX#ioo-o-;-6-+--+7-+O+o.+%-+oo+#+-@.+o<.3-o+o+.#Oo+-*o;g--+6#++o->+.&oo-@o-r-*o++%*--++-@7-@++oo+++@oo+ooo..#o.",
">&%--+hrh--+7+O<o---o>.+-o*6*-+r*6#.;+-+.o++O.+---+.#o+#ugo.$.++#..%+*O+o+***+o;.o<*+o7--7+-***@+.7@7-7--7+@@+.r0-+$-+#%..o&#.-,",
"%o-@o++.+Xo+.fO.,-*+5oh+-+8*--.7@+*6-+%+o-+o-+o%#.%-Xo.#.o#.+-*O.&%6go-6-Xd-@o@+%.X-$++7oo-7*;.o------67*-@+@%.*o++*+.>.o;o#o%.=",
"+;-O+Ooo>O=.%o+o.8#$o$+++.X+;-o%--o*o;-.+oo+o++6&o+.e3.,,#+0*-o-:o%.7+-5.-o*+od+.-.@-*7X+@-*oo-++-@----;*-++*+X.o++.o:ooo..o#.@+",
"OoX.o&o+qo-%+oo#>.o#+X+.+o+o+oooO%o-z-o4+oo-+-o-.:.q=.,,;.+o-@.7+*<**o*6o-.g+++o&--r-*.4r+%&***-+*7--%*---+*X+#Oo#oo*+>o>.&.-.-+",
"O&%.#.&#q+r-6r.>#>.#&+-++.--o+o-7+++++oo.o+@.*>ox>.++#o+o-7-o=or++4-**+8:oo@+#-Xo.+-OO--++o%-7*--8@-+*+-**+-Ooo+:4+--,p1.+-o+o+@",
"...#=.q#.7i-.$+1#o>>o#+o++oo;ooo+o4+.+5#o+++ ,,#*,o..++-++X-O>3*oO6*+.-.o+8.o+-7oO-o++77--6@o6;--@;-*-+*o-.o.#+>+*;*o,2#+-+@.+.-",
"o.:.Oo,o+*++o#oq##,#.*o+++-.+.---o7-..oo.+,oq=.+,o+ooX7o-*--##....oO+o;+o***+o.O%o.#X*7X-7-r*---@-;-@*oo.o,>,#--6-*+*>-..+*@.o--",
">#o:>.##o;+oooo%>=o%h;h+o4+%+o5o#+++oo#.##3 o,ooo.;--*oo%*-+1o-.O<-+o--.8+-*#-o+%X&-rX77-;--+--+-7-*+oo.#,< .#**-*++-**7+**-ooo-",
"ooOo#1<.o+-@.&o.=Oo+oO.#%ohjo@oX,.#-.>c1,>##+o:o-+*8X.o-*o--*#o#4*>+*o..*6:;76o-##o+7777-*7;*--+++oooo..,1.,-+*i-7+oo*6-@*.+--++",
"%o%4>,<.+..oo+ =#+f:=#hO1o+++.o..#,&1v-o>,.=o++-666oo+g+o%*%++#.oo#.o.X *o:-**o@%+*77-*-r---67+-g--@-+..#>.1.**+o5.--76-o-.o+oo.",
"o+..11+#..>oo,,#=%&#+:.%o+o+=.#.#.,>6*o.:..%*+-**s-X#oor.*X+o+-%.+7+++o8-.7+$*-*%&@-*7**r-*7+-O-6r+-o:#5.>,#o+o+-++o7**@o+o#oOO.",
"o.>>,=+. ,...>o#f=+o...o++...##o>>>-#.o+..;+;g@6f;-++&*-X--oo*5+..*Xb-kXd+;--o*;-@--r+-77@o++ooo---oo+.>.#,noow++-+@7*7+oo++<o#>",
"p1=#%+o.oOo.#o>#.$#.##.o..oo.>.>##.&Xooo-@*+*--;;oX*oo+-*+*:oo-.gXo.XX**+++-*-++--****@-d*-+*+.o;o;-@--.,,1>>oo.+o.+-*-+:o.>..&>",
"#3o>-oo&oo++.%:# >#...###:..#33>#...o%+86-66o;o++.;o4.--oo.-+.gX:.#:ogX+.oXX--;-+7*-7--+-*+6o%.+o-*-+*.O>t$%#<31>.+--@oooo#,>#.#",
"X@*++@o#+X.>>1.=,=&#ww.#&.>>3>o.$oo%$$8-;66+Xo+@+>.o&*.-oo6o6*#X-o;606+XX.---r-7*7***7+*oo.+++o0@0++O#9.#,+%o.O<#Oooo-.....=>>O#",
"+,g7ooo&+X#. ,#>=>,=#.O.>,m>##Oo*@r+8+8;66*o@$OX;X$.>+-o*+.++6++b6b;b;boX+-7-*7--7**++6@.oX+#+--*#..,33##+o.#O+...0++-$..<%>&>.>",
"=o@-%+o+-..:>m#>%+o==:g@e6:#+4o+;8d8;d686**@O7Oo#...*--++Xo6o+o+;*;gbd-+o-*7**7*g*+-O*o%.o+o;+*7...3+&-oO+;-&-++o.+-o+o##o+.##>q",
"O+6o.++:## =,po.o...:$aa##+O.+X*d68%;;dr-6+;+8%%.-oo#>+-+-o-;--g;o*6-r+;@--*-66*+%-$%@#,.o+-o-++#o%-%+>---oo.+ooOo-oo4+4+o+o>#..",
"--o---o..>>>&&##.>Mpaa.>+8++;%go%koX6ggd*o*$-%-%+.-o.o-.+X--o;*---88-b8-*d-*k6**.O+o+.oO*o-7--+.#=>#%o@*@-+++-o,ooX-w++*--#,#..#",
"o$-;;-o.>,$o.$#.#1sl=&.o-+-87;%@OO-*r-*-k-oo&o.$*+-+.oX-*o;--ogod**---*--r66-*.+--+@+-r6-o+-@o%&>,=+o#+.oo*-.-+o<.+o+*--o.>>##.#",
"doo.+o>:.$.+#.o:,ep>oO*-8;;;+%7@7-r*g*-r-%O#O-+*o7$.o++*+-;--+*6*7.++**--7o*o+Xo--+oi6*6%o---oo.#&.<.+g6oo*+.-*+#.o+-++O###>q>..",
"&.O-+o&.o:>>.$NBV3$O7rXrd;8X@%Xk--**6*-+7-O@*O,*+-+8o#++*-+-+;8*7*--;***-o&+#4$oX+0o66+o+o-&o&,ooo+#o*O#o*--$o*++o0o.o..#.#>,#o.",
"OoX%.>$o#>##CgmZ &@7@8dd*887Oo6@7#-od*g*-*#@+-**d*+$o#*+r*-%.+*-*;-$++@.-.-o. ..-+*7k-o.%++.%%-$o+%.#Oo++*-o..+X-+..+..#..#1,#Oo",
"#.#.o...& # ,m:>%%@rrk8;;8XO@7@7gkr77d6*k+Xkd-X6--X++;-r--X-----+%+-;+o+-+-+1&$.o#*-.%.0%o%ooo@+o.+.+..+oo-<o++>$o.+o>###>+,,OOo",
".$&#o$+%3m,p= %%8;8;$8X;87@%-;$7rk;--%*7--r*-*6g+o+6-686**8*-*-@+++o+@6-++-o#pO;**#o.o-++-#o++o;#o-+-.o$o+o.++5+o+oo.#..##O<..+O",
"&$$..Or:O O&:&@@77.:+;;%;*7r7@r7dr@oo@+*k*X7-8-X+o*X-6--**--7;--7-@.O-++--:=#o.-+oo+o++X&%o$#%o+7r++@o-@+.+o+oo.+o0..&..oo...ooo",
"##o$sa:&O:&O%7@%7@88%;*O7@7rk77-O@@+o@-@-8:oo***-@o+7-;-*7--*-@.o%-+6-6;##>&o.O%Ooo+$.o.++#oo.+---o+-.-.<X++.*+.#&*.o.$o#.o.&#o%",
"o.+gq>::%O;@%7@%;;Xk;d7r@r7rkr77@@%X-+-@r7*%oo*;--o;@++X-7*6..oOoo+oXo*o.&oo-&#.>+o%..o.%o+.+oo+@---+++oo-o++o$&+@+oo+.oo+$+o$.X",
"O.O,+&&7X@%@%7O%+;d77rk&7@77r7@r@r@7%-*O*k+Xr-+;---*-++o--%*+%oo.#&#o@##+ok* ,O.>&.O+-oo-o.Oo+@-++oo#+:+o+oo&o+.+-.w.O..-+--++oO",
"o.%O&O@;r%+%q%@X88@@@kO7@%r@k%7787dd#7*7++%+-*@-7--@o#+++*--++%o##.o-#>.o-#.o&X.>#o.o+oo..o++-oO+o=...4o.o.=>>.%4-.ooo.;.++---;#",
"oO+&X%=@7%%%o@*@@@@@7*%7%@l7%rrk@@;X@@-*@+%+--**7+%+&o$+o++++o##.+o.+o+XOo$#..>>#+-@+o+.+,.o++;+-o+.++..oooO@.o..-oo+o.-++-8-oo#",
"o+OoOO>O+7Xo;*-*rOjOrr7k7r@O7-r8;;@r@+-*7+---;--++%=r-+o*8*-ooo.oooo:oo-Xo#+..:&+X.%..X44oo+..oo4+ooo#.Oo+O.%o.oo+%.Xo-X-+:*-oo.",
"...%o.%+@-oo+***@@%7r%rjrr;rgrlr@@%o-@+*@+@-o@*++%.-+;-;+6+++o.#o-.&#+.$#o&:&#=.o+..&.ooo+O-##<#o+oo.#.O:+##oo:o-.Xoo+o%+++*oo.#",
"#o+&@@.o;+.o@@@7@7r-77*rr4rk7r@@777@@oo+-+-++7+++O+o++o+.o+oooo+..&.Oo+..O.o>##+&%q<.#5o++.##>&>>:.5o$A+Oo#&o..oo+Xo+o+-#$-+.:oO",
"&%oO.+%-j+oo@@7r777%@@%7r@r@rrr@@77-&.%ooO+++@--o+*+*+.o++o++$-o++o>.. &&oo#>#O+.>Oo+$o@oo## #..#.oO+.*+.:=.# &$+++o+#.++++oo&#&",
"o.&:+.+dX+O.%@7%O%7@r7*7Xrkrrk@o@@+o:o*@Oo%+o-+.*8.ooo+-+.+XXo.;o..oo&o#.O#,..&#.o&..o++#&##>.> #.%o.*5oo+.>,$+.Xo7.o.:##+8-+o#.",
",,.w4%#.i+@%o@%7%77r@777r7@7r77%-+.o..ooo#+o%&+++.q.-+*-..,O--+o.O-+....$.Oo#>Oo.&&...##ooo#=.o.o.+.%oo&%o.>7-*&.oooO47:**-oOo#o",
"13$h+*-.5q.%7r7@rX87@%7r@7777=+%o%%oo.%+#+@%o#+->ooo+--o,v$++Xo>-.+o.#Xo+o.&..>>##o.o5#+o#&,.qOo.oo>..o>.OOo*--ooo+o+.o@++o,@+o%",
",,.%-$%<hf#%O@;@+;@@7@7@@@.%$%o%$ooO%o%-oo+o>o%#.o$-**++-+-:--+o-4-+o.o%+..1.>,,=##...><#.+.sS>.-OO#.o,=&.o+@+oO#O;.o-..+X*o+O%X",
".#&#+#<O+.&OOd;8Xr;$@@%7-%%OOo%+%oo%$%%oOoo$#+.o.+g**+O--*-@--X$-+-%o.;.#$#.>#>#q##.&#>#<*aa#.o.+%.o.O#<>.Oo++.O.>+-=+#+;+%+-%++",
"#q,..-&h<+%%;@;d;;;77@%%o+-%h+o%oX---++ooo+o+o.oo-++-++o*r-+-Xo-oX++@o@.O#>,>>,#$1#.#>.&*l#q##.%oq&#.%<q++Oo++O.XoX*%.o*-*+Oo%&O",
">11%O<-.+b%-XrX;XX:;7rO%;@%+%Xo+oo-u*--*o+4%oo>.o--++oo-*6-@oo+---o-X.oo>>,,#p$.O>##..+.==,2,:O+o#.#&..>..Oo#o.o+oo%.o.%-++o4%.+",
"Ovp..o-O0+%X@8+7@X7@r7%O+%O+o5$++%+l6-++++4oo#%oo+o++o@*7r+X.+7-o+7+o#qq>,>:,##,#&$.+%#>,.>,%.%+%%#,#OO.#++*%+oO++.o++.+-+o+&o+@",
"o>+o@#%o*Oo. XX d-@;@%@%.oooXoo+@$O+o+#o+*+@%o#o%oo%+-%-*r+-o@+o+++o&#>#>&.>#o. ..+oO#.<>##q+.+-+.#&.#oo.$+++%o:&#%#o+;-#Oo$.%++",
"oo=+..=+..O@>%+;%@@-X%.%%oo%*-6-o5+@-o-+**++..@+.o.o..-***++-7Oo@+o+##..&=##&o..ooo#3>,>##%.o%+-%#>##o##oo+o=O.o-X-%d-+@o+o+ooo&",
".-%.-..>&.O.::%o%%+%%Oo%o.d7++-o-.X4*+.o*+%o..oo+.>>#+-*-@o-%+.+++-+..O+>>&..:Oo&#o.,.##%.o+%oO+@:>=o%.Oo%7+o.@+oo-+o+oX$-.@%.O>",
"#.oo%.oO.# $O.o&+@h++%+$+-*-:.oX-+*-&.-8oO..o+o%.oO,oo--6+$+.o#4+o%o.+##>>##oo#>..o:>3O.+..o@--+O..o.@.=#:oo$+-.o+o-o-@ooo++..%=",
"#&7#.+o%&+Oo+$O.OfO%4%++*6-+$++5+--+oo#%7.%&+++#*+-o.++--+O-X+4+.+o.oooO#>oO.#w#o>o.O>o.Oo..&--+#=O.++#o+++.oo+o$+*%@*++;o&&.o..",
"%.+%O%+oo.O+@4&O@oO+#O@+-+>.$@++--o.oo@-+--o+++o8-++X*-j++-o+-++.&+o+ooo&.o#.O#o.&o..oo++..++77+O.o.&-+%-OX-o@-o++++*6%+oooo.$+O",
"+*7.ooo+%Oo.++o.4+oOX-o+.Owo5+*%Oo..#-O*@&6-++-.-->o.*-o+47+--..ooooo++##>.o..o.##o+o@o7o.>#%*-o..&o..-$oO-&-+6;-O.+$+.&o+OO.+O+",
"o%+#+o%oo%.o+oh+h+oo*-;-oo+oo@4...&#.o*+.-o++-*0doo-$++#*--*o.#.:5oo#.7>.o..oo#+o+%##o++o#+o%.-@..oX++-+%o+%7--;+X+@Ooo++%oo@%Oo",
"-@oO%+%+o..XO&&O-+++--o+-X-%.+@%o++OooX.++soo*+#---..o+o++.o#&o...O.%.o%o.%.+%-.O=%.#.r--O+7.+-+:oX-8+oo+X++67*oo+Oo%$o+oo&O%oo.",
"X+O.oO+++%&.oo4+++o+++o-+o4o+-$+o++O*o++8l#o0*-..-+...--o+o.o..&..o.O#+@+%Xo--r +#X-%r&#.$..*--@X*;-;o++-@O6--8++%o.oO+%o..o++@O",
"+.%+o@+-*%..o.+&#.-+++i*oo++7*.--oo;-@&ooOo@-*+..*+4$-4o.o<o.##>o+o.oo%o+++O+-*Oo+;+#oo+..;@+7-*;-o*+X--+-+*+o.oo...++.O+o---@O+",
"roo%-+o-*+%++++o.+o+>+++++++++7-@-;o;-.#.$o%-7#.o+O0oooo&.>.&o...>o.@-;*+o+.+*%o+#7o+&.#++-*-+@*#$++*87+@++-+@ooo.++ho@%--oX%++o",
"7+O+-%@%*+-++@+>f.@4+*.o+o+-r*+**-6+o++o.ooo+@..+.++o.$O.#6o.o.%-&&o%77--7-..++o+o.#-o>O--@+7-@*+.o$.--+;-++@o+%o.oo.+-o-o+o--+o",
"-&%+o+ooooo8+-#.o.+;+.+.@+@*--@-7--.6+--o.-o..o+oo#oooo#1soo<o@%o#+17+o-@+***-+oXooo+o---@oo*-;-o;7+-7---.%o%..+hooo+++j.+-+joXo",
".4;%oO.o.+#o#o%o..*-%.-o@-.@+4-oo%+7-+o+.oo++ooo@.#oo+3>>:=q-%@++.%-O-o-*;o-++-+-%%.7o6%+o7-r-%++*+*-;o#%#o++o@Xo+o+-+o+++++++-+",
"q+o+.o.$%.o>;o%+#Oo..oX-o+o%+.O%.--7-.-@+-o.+o+ooo=#,l< , ++%*+%-.r.oXo-++*or++-+.%.-++@-@+-o+*@6@*7-@@.+%.o+oo@j4--4+++o+o@+%o%",
"q#O%.O.o>>++-+6+q<:<.++oX++++-o+@+-+-+o%++o.4%ooo+=+o.>,++%+@*#.*+%.++-**o$%-;#-Oo#@+-o+-*7o%*-*-+%@%7+-+j-.o4o+--++;--o+%.4oOo-",
"qoo%.=..#=-*-ro.qo+>>##@-o%-+o++-+o+ooo...oooo>.cg##Oo%o*o&++o..@--#6*>-.++-o+o+-.+-oO-*++7--7-*7%@-+-+--++.+.f+-+0*-+-+o+oo.o@%",
"*%..>#$=+.**%....o>>oo-%o+%O=+o%+X.oo...Xo...>+=:*o5oo-@%--++:#>.#++--**>+-@*+O;..-#.o7+$--+--*%--o--++---+%oh++-7--++--+ooooo++",
"*o#&..Op.7-$oOo.o==#@+++o+o++4X-.-o;zo+oo##,#,>..>.oo++-+7+@-.O..o.o.>oO#o66-o*o-o+:7@++*-+-+@*@-+--6**-+++o+.%--0j-+@-o+ooo%.o+",
"+>oXO<>=o%o++oo..>.o+o.O.%X++++...<oo$<>>>11...#+o+;+-Oo*;+*o&.o.o+++Oo+@*6*-o*+*X#o-r--*-%+@@6@+@70+6-+o+7++@+-+-*o4++-++oooo@+",
"&ooo%<>>.X.%o&+.#&+%..>&.ooo4o..###o5<1M.>>:+o-#%@-+&.&++7;-.+Ooo@6%o-O#.6+O-7*-8>%+7*--.++@@j--@*7-*7;++@--@-j-+++oo-+-+*ooO+%%",
".%+o.>1&#oh.o%#> #4#,<O.+.+--o..#.>=#poo:#>:;%$--b-+oo+*64--.+-+ooOoo*-+-6+:*-8o-%X-*8O+.+++-+@6r7*-*-7+*+-*++70-++o--@o++o5+%+.",
".Ooo>p<o&#,>.oq,:&#&oo...o.X.<#<.<,#-6&.+...+o*r66+-.oo5+o-Oo-+o+o++-.$oX-o-*++++o@-o%+%@%%f++7-*-77*----+++--*-j-+@+++4++o.--+O",
"o.,&#,%+..#&&#.#>&.......+&.+#><<,p,##..+$o+7o7--.o7+-<+-o--o-oo.+o6.o+6-+oo-+--+++++$X%o++@--@*-***d**7-@4o+o+.+o+#++4+-+6*#%-+",
"-,m>>o..>&.o%fO>..>==...#.+O#.1<q<##.O%$-+-*--o+o;o*-+oX7-%-+*o-+rX.oog+-oOX+--++@@+@o++-+--+--*77*6-*-7-@+o@ooo.X+o-+@+*6+ooo..",
"6.@oo+-$.Oo%>.m#>q,.#O#&#>.o##11&#o#o+%;88g-%o++o+ 7oo0*+o-:-**6;Ooo6.g.o.o-8+o@@-+@%+-%*+-@-@+-*7*-6+--*-+.X+.o+o-+--o0%0.#..o.",
"Oo>7*@#.#%o.#>=&.1>.&#oO##,p>3#.$o+o+$@@;+**+@:o*+o.ooo+o++*+-@#@++-d-;oo$--%#%-*7--%o+@+-**-++*---*----++-o.#oo%oo+--++5oo$owoO",
"@+o6++ooO+..=<,>,=.,,:&:+,.m.>o.++r7;-8g+66*oo-.Xo+oO>-+++-o6*;#6;r-b68*oXO%+%+*-@@;+++---+@-+o7**-*d--++++%+%o+oo+++o+.++#O.o+o",
",=o.%o++#+#.>=,>#X..>#o+eg>>o$%o776;X%7drgr8-o-oo%+.X+.-7+.o-o7**d;d686-++++----7---+O-+-+++-@+7**j0++-o---++-*+j+o--+o.oo5.h+,1",
">.---o-+#&>>,qOo#o=o.>ua#>+%.&oOO86rX86;7*-@oo++;.Oo+-oo+.%o*--@**0r*;+@-%++7--**-+--++@o++-+--+-+o+@*@-6++-+.**++**....oo&#o-:#",
"D+oO+--+##,>O#.>o.3Fua:..X@++;;k@OOO-6-67+.*-oo7++--+X-;.;o-+o-++7*--@r7-+---+--7-@-+X++.+o**o+7+o-++*7**7o--.o$o+#-o#+oo.o+o.++",
">=O-o++.&>#O%O###>s6>>&O+-X;7@%%%%@-67-g6-o%+o6+;-o-+O-o@-*%7-ok**@-**7r---7-+-r+@o@ooo-+@.7-*-;*+7-+*-7-+-*+++4.+$o+oo.oo#ohjo+",
">*.+%o$=.<of,#.osOv>.o**8-887X%8r-r6++-;-%-oo+.+d-;odoO.+%--7*-6+@+r*6+-o@*---+-oo+ooo--+-47+*+---j@-6--r-7-+#ooo+@*#.1<+..+.--@",
"q.%o.o>#o.===OkB31>$X7r@8r;r7%%@@-7776-@-@oO7*8o@+8oooo%o7--o+-;7-r*--*r+++*--+X>+Xo4+@-----*-7*-+++-7**-+o+<.<o*-6-931.----4+*.",
"3o.o..&.o>.>@Cm1#=o+*8kdXr;8&%@r%*-+7***rr-O;@;o-*.+@.+676--%-*--*-7-*+*-+--+4j.h4-@++-@*-*7-*-8-+-76-o+o.#o>+7++*-o9G-oo+-ooo-%",
"p#o&#.O.-#m,11&.Xo;8;*@@X@o%o@@7-gr77**---@+;;g$*-+;r-***7@@--@-*+@-7-@;@4+X+ooo4o7o--@-*@++**+-7-*7+o:+>,>#,+6-*-+0*-i.**-oo+--",
"m..O.%+. 3q>#>#o--7-&X@;X7@%7%%%k*6@o7*6@+--*;b;;@-+--**+@---@.*8*--704+++++o+o+-+--**-**--++--7**o+.o.>,q,#.*l*-+o++**+7**o*+-+",
",o#&.&u. &&O..XX%@@+%@%@O;%7777-r7@@++kd@*+@$8*k*-+**+++%++@7-7*-7---@+--o@4+++@-@----*-@-*r@---o++o+o#.##q.+*-+-+-+*g+--o+@-@-O",
"3=o.Se>=O&.&%@;+OX%@r%876%r77rr*r7ro;%--+r@oo++7;--;OO-o%o7***---7--7-++++o+-@+;@+6**r6*-7*6*-+gg**0&...,=##o*+-+h+-ri-++o4>+-*;",
",O$+>H&:@%@@@@7+%@7@@@r7%%@786rr*o@@7;%7+**ooX-*--%&.o-+;-8*j7o--;-j+-%+-++--+-*6-**r--*@--*ooo66@-+-.qo<,>.o+--+o+-*6-.%--+-@-+",
"1.O&:O%O@@%@%@O%@@@r@@k@@7%-kr7%7X77r%@--@..+*78%@+o%o*+.-7*+-O------++o++77****---**--*r-4%-o+o+--+*+.<,1no+..+o-+-6*-4o;+o*++%",
"#+Oo::+%%7oOOO4@@@%@O@77r7@77rrrr7$;@O-*-%o%--oo%+7o.+*4--+@-7+**-+-+o+-+-*--*77****--76r-g6oho-r*-*6*oq,9%<#.,o..*-**-+*-.+--O*",
"O.%+.%O.%-@O%h;*@-&@O@7jr-7r77@r8rX;r-@-*+%oOO+o++++4+-;-------+jj++%----;*7--*-*7*7--*-.++o-.++*r*-+.>q=<+.>1>,.+*-0+4+o+#oo@-%",
",-:.oO&q%o7h.4**777@7r+@77@%7*7r@X@@.+Or+->=.+.o@-+%+-4o*+-@-j%o-o++--@-*-6*--@*-r**o-7@.o++++i6#+Xov3oq+*oh-o+#o+-*6-o-o+#+--;%",
"+Oo&+O@4+;ooo--k@@O%7777r%%7kr@r%@7X@-+%.pm##O+o--;%+r++--*-+++o+4--7*7--+7-*-*-667+*6-ooo@.*-**oo,q<34.*o-+*-*o.--**@o---+7o%#&",
"6.+oo-o+--h..-X@7O7k.k7*r7r7@7r7%@@@;o>=.>p.#%O.--++o*-;*-+++++-@+-*-*-%-*-*6*6g+o+X@->#.o+-*6o.%.+O-*---0+o*--++*+-%4;O+*+oOfof",
".oO+.o..@%oOO+O7%+Or-@7%7@rrr78r%@%-tqq=&#>.o+o+7*%+@-+@4+4++o@+*--*%@*-67**ki--++o-.&o.+X-o-@->,@.@7,i-;+-+*->.o-*@o-6-6@q<.o.<",
">oq.ooXo@+o.%%-@@=@@-@7@7@77@77@%%#>q,##$##..%;@*-%ooooh;-*7++-@7+-;+76-*766**+.----*@66+*6*+-5#>#%o.@---**-*@++oo-h-*06..#<=h##",
". 1&O.-.,o<OO@7%-XXrO7%%r@7@@7O@:>>====>.<.$o++7.o+o.o+%<-*+++j-@*++76X-*6---oo+-**+*6k*.o@7h+&<=#oo-*s+o--4@*-...0+-;oo..,.>oO.",
".>>Xo+o-&%OoO7X;X%;@@%o7@@@7%@q>#=>=>,&Oo=O.*+O+*j+h+++++*-++%-*-+++-**-+.+-o+#@-*-*r6+Xo++*#-oo*+o#*g.o767ho--oo#o4.oX&.:,>>..o",
"#>=##+o*+o%oO%r7r@7@%k%7%rO%=1,=q#,q<>..O<%ooX&o-o+ooo+%@-+%+-+++-.---.-.o+>#<$o-;*s7++%+-+--#o**%..o.-4*do5.*+-O--..o>..#31#oO%",
"@#,pO$roof4OX@X;7%@%rr@@%O>#.>#q #>>##>.O#ooh++o+o+%%oo@7-*.@---.@7o;*+6+%oO,oo0>*.i+o-o7+67o66;%o.=oX-+-+.o-7o;+oXo&w,$.#>1.o%o",
"-&>>%#+#OO-+;@88%;X@r@@7&=#.#&>q#=####<.#.&%++-++%++-%++6@-;--++%++-@+-+++.p1+7+*6<.o.+;6**-66*+oX-oooo++-.4-,0+.o$-&.<>o+.>.O%o",
"8.2,..@-.o@oXX8;7%7%@7>&&>..>#qq#.>#q#,#O#oo++-*-@+j+.O*6-*@@@++@-.%+r+7-81.#o**h#o.;--*-------&6-+-o.*+oo+++oOo+o.+.O#..oo..ooo",
"%.q>*+%oo#%O.@$@:%77 >...##& #&###&=,#<qoo;o*@77+++@+%+;-+--;*h-@-o+++-7>#>#.#o+.%+o+-o+%@@.o@-7*@-%.X$++-;+i<.%O++5.+.4.ooO.o+&",
"6@$o*o%+@*..::;;@7>,o.O%.>.#=,=#..&##=>.>%jo-+*-o&+j+%+@*7l-o4o+o@-*o6o.>,.o..##o++++Xo$.+.++-+o*o*-++5#-++++oo.+-$oo+5#%o-=oo+o",
"@++&..*#=>or#=&@q>#&$..o.#<&,########>.##o+%7-7-7o*@ooo+r*-oo+oooo<oo7...@ko,#>o#o@X-+oo-+o+*.+++-++%++o-o+%%..+--.oo.<+oo*oo$oo",
"*fo%.O->&##O:#t=..&o&...& ..=<>.&#&.#=>#=.%-++----o4:+@-o**++oo&##oX><oo-6.#,O@.>.#-+o+-o$o.X-ooooo.#:+++o..,.%o-.Oo&oXo&r-+*+:>",
"&o<o>o..@.$. #o&O#&&O.ooo.o##>>...o&&&O.O.o-+-7--+%+Oo+-.-oXoo:.+#.+:1o.O#=+..>.%+@+-+oo.+4+jo++o.:.o+ooo$o>o.oOo<oooo-o-o6@-@.,",
"&#.%+O+.Oo.o%o..O...ooOooO.##>#=.o##.Oooo@o-+7r+%X#.@++;g-@@+#h.o5o-+&%#&ooO.>#>o+-oo++++o%-.;4--oo+.5.+*o.++.+.+oO+@#++8+g*++.#",
"#O@oo+@7%o.oOoOooO...oO%.O><>,.:##+.ooo.#+-*%+@-+j+d--@+*6++$+#.-hqoooo+o#.$:>Oo@o:O<+o+++*...#o-+4-o#o++@&oO.o.O+o.o+o+7+r-ooo+",
"o%%o&oOO%Xo%oo..O....#..+X#&=###X..%oo@#O+4o-6++oo&o+++%.+4ofo+o..#,..&#&#o.=>+ooo#o.$+o+o&w#>=##oo#o,++o..&o&oXo+Ooo%+@oO-$#.,%",
".o*+o+-%.ooo+%%o&..O&#O++o.O..&#X.oo#.o+.@@++++o@+o%-+oo+oo.+++.4h,.#%O#.o>>#=%:=<.o+,+-+o..#:o##4o--6--o&.o...oO++o=o+.7+oo#&#.",
"<-&oo@+$Ooo%+%o.fO....o+o:+%.#.1Xof:&$+o&+;-;-.X--O*X.-@.o++o++4.oo.##,#$+,>O#<#oX.Oo$.oo#.#o# .#oo*;.o+7.>#..$-o-.o%.Oo--+>#+##"
};
